<svg width="1600" height="1000" viewBox="0 0 1600 1000" fill="none" xmlns="http://www.w3.org/2000/svg">
  <rect width="1600" height="1000" fill="#FFF8EE"/>
  <circle cx="1348" cy="164" r="214" fill="#D62839" fill-opacity="0.18"/>
  <circle cx="220" cy="818" r="230" fill="#F4B326" fill-opacity="0.18"/>
  <rect x="334" y="318" width="932" height="360" rx="54" fill="#0B1F44"/>
  <rect x="402" y="374" width="488" height="212" rx="30" fill="white"/>
  <rect x="930" y="394" width="244" height="144" rx="28" fill="#D62839"/>
  <circle cx="470" cy="762" r="76" fill="#0B1F44"/>
  <circle cx="1128" cy="762" r="76" fill="#0B1F44"/>
  <circle cx="540" cy="260" r="64" fill="#F4B326"/>
  <circle cx="684" cy="240" r="52" fill="#D62839"/>
  <circle cx="840" cy="252" r="58" fill="#F4B326"/>
  <circle cx="1012" cy="242" r="54" fill="#D62839"/>
  <path d="M492 538C526 512 570 498 618 498C666 498 710 512 744 538" stroke="#0B1F44" stroke-width="18" stroke-linecap="round"/>
  <path d="M1000 610C1052 566 1108 546 1160 550" stroke="white" stroke-width="16" stroke-linecap="round"/>
  <path d="M520 876C612 824 720 796 836 796C952 796 1060 824 1152 876" stroke="#0B1F44" stroke-width="24" stroke-linecap="round" stroke-dasharray="12 30"/>
</svg>
