<svg width="1600" height="1000" viewBox="0 0 1600 1000" fill="none" xmlns="http://www.w3.org/2000/svg">
  <rect width="1600" height="1000" fill="#0B1F44"/>
  <circle cx="1320" cy="180" r="300" fill="#D62839" fill-opacity="0.85"/>
  <circle cx="240" cy="840" r="320" fill="#F4B326" fill-opacity="0.9"/>
  <path d="M177 677C265 548 401 442 553 378C705 314 898 290 1086 347C1274 404 1437 543 1518 716L1422 752C1347 591 1204 474 1044 424C884 374 716 389 578 441C440 493 328 586 256 696L177 677Z" fill="#fff" fill-opacity="0.16"/>
  <path d="M423 246C523 199 665 165 816 165C967 165 1109 199 1209 246C1274 277 1307 312 1307 349C1307 386 1274 421 1209 452C1109 499 967 533 816 533C665 533 523 499 423 452C358 421 325 386 325 349C325 312 358 277 423 246Z" fill="#fff" fill-opacity="0.1"/>
  <ellipse cx="816" cy="560" rx="420" ry="130" fill="#fff"/>
  <ellipse cx="816" cy="548" rx="368" ry="102" fill="#FCF0D0"/>
  <ellipse cx="816" cy="533" rx="326" ry="75" fill="#F4B326"/>
  <path d="M584 518C615 470 680 438 751 438C839 438 892 481 936 525C964 553 998 574 1062 580C1019 635 911 664 811 664C720 664 629 632 584 518Z" fill="#D62839"/>
  <path d="M722 409C745 391 780 386 806 401C830 415 839 448 828 474C814 510 771 543 719 550C693 553 664 551 626 538C645 495 677 447 722 409Z" fill="#0B1F44"/>
  <path d="M1032 457C1068 433 1117 429 1148 448C1183 469 1191 521 1168 560C1142 604 1088 639 1028 645C991 648 959 639 914 618C946 553 979 500 1032 457Z" fill="#0B1F44"/>
  <circle cx="802" cy="325" r="95" fill="#fff" fill-opacity="0.92"/>
  <path d="M729 314C744 272 788 244 831 256C875 268 901 314 889 359C878 398 842 433 786 433C745 433 707 404 729 314Z" fill="#D62839"/>
  <path d="M775 360C796 343 824 338 844 347C863 355 873 374 872 397C871 425 849 450 817 455C795 458 772 452 745 434C753 405 759 380 775 360Z" fill="#F4B326"/>
</svg>
