<svg width="512" height="512" viewBox="0 0 512 512" fill="none" xmlns="http://www.w3.org/2000/svg">
  <rect width="512" height="512" rx="96" fill="#0B1F44"/>
  <circle cx="398" cy="120" r="88" fill="#D62839"/>
  <circle cx="116" cy="400" r="96" fill="#F4B326"/>
  <path d="M110 294C138 220 204 170 280 170C352 170 414 216 440 285C416 346 365 395 295 416C211 441 130 389 110 294Z" fill="white"/>
  <path d="M162 291C185 235 238 200 298 200C355 200 403 232 423 283C398 336 355 371 299 389C230 410 175 369 162 291Z" fill="#D62839"/>
  <path d="M214 165C224 121 262 88 307 88C360 88 403 132 403 185C403 226 377 261 340 274C329 225 291 187 244 170L214 165Z" fill="white"/>
  <path d="M173 251C185 224 210 206 238 206C273 206 304 232 313 267C286 266 262 272 236 286C209 300 187 292 173 251Z" fill="#0B1F44"/>
  <path d="M137 380C169 360 211 349 256 349C301 349 343 360 375 380" stroke="#0B1F44" stroke-width="20" stroke-linecap="round"/>
  <path d="M166 392C193 379 226 372 256 372C286 372 319 379 346 392" stroke="white" stroke-width="14" stroke-linecap="round"/>
</svg>
